<svg width="2" height="2" viewBox="0 0 2 2" fill="none" xmlns="http://www.w3.org/2000/svg">
<mask id="mask0_151_13" style="mask-type:luminance" maskUnits="userSpaceOnUse" x="0" y="0" width="2" height="2">
<path d="M0 0H1.72396V1.59896H0V0Z" fill="white"/>
</mask>
<g mask="url(#mask0_151_13)">
<path d="M0.395701 1.33882C0.260285 1.24507 0.145701 1.12007 0.0779926 0.974234C0.0207006 0.854442 -0.000133022 0.719026 0.0311176 0.594026C0.062367 0.463818 0.150909 0.349234 0.270701 0.307567C0.354034 0.276317 0.452993 0.281526 0.536326 0.307567C0.635285 0.344026 0.718618 0.416942 0.770701 0.500276C0.781118 0.521109 0.801951 0.510693 0.807159 0.495067C0.817575 0.411734 0.848826 0.328401 0.895701 0.265901C1.07799 0.000275459 1.5207 0.140901 1.61966 0.328401C1.71862 0.526317 1.60403 1.23465 1.05195 1.55236C0.979034 1.59403 0.859242 1.54715 0.781118 1.52111C0.734242 1.50549 0.692576 1.48986 0.645701 1.46903C0.55716 1.43257 0.473826 1.3909 0.395701 1.33882Z" fill="#F5F2F2"/>
</g>
</svg>
